<!-- <?xml version="1.0" standalone="no"?>
<!DOCTYPE svg PUBLIC "-//W3C//DTD SVG 20010904//EN"
 "http://www.w3.org/TR/2001/REC-SVG-20010904/DTD/svg10.dtd"> -->
<svg version="1.0" xmlns="http://www.w3.org/2000/svg"
 width="2104.000000pt" height="1496.000000pt" viewBox="0 0 2104.000000 1496.000000"
 preserveAspectRatio="xMidYMid meet">

<g transform="translate(0.000000,1496.000000) scale(0.100000,-0.100000)"
fill="#000000" stroke="none">
<path d="M1799 14672 l-1257 -2 -6 -31 c-3 -17 -6 -3136 -6 -6930 l0 -6899
1240 0 1241 0 -3 3708 -3 3707 -23 57 c-31 80 -27 135 13 174 15 15 35 11 35
-7 0 -5 12 -27 26 -49 21 -32 28 -58 35 -130 6 -63 17 -110 37 -158 16 -37 32
-93 36 -126 4 -32 17 -81 31 -110 13 -28 28 -78 34 -111 5 -33 19 -84 31 -114
11 -30 27 -86 35 -125 7 -40 22 -87 33 -106 11 -19 27 -75 36 -124 10 -48 26
-105 36 -125 10 -20 22 -61 25 -91 4 -30 18 -80 32 -110 13 -30 31 -90 39
-133 8 -43 23 -97 34 -120 10 -23 26 -76 35 -117 10 -41 26 -91 35 -110 10
-19 20 -60 23 -91 3 -31 15 -76 28 -100 12 -24 30 -82 41 -129 10 -47 25 -100
34 -118 8 -18 20 -61 25 -95 6 -34 21 -84 34 -112 13 -27 28 -77 34 -110 6
-33 20 -84 31 -114 12 -29 27 -85 36 -125 8 -39 23 -88 34 -108 11 -21 24 -64
29 -95 5 -32 20 -87 34 -123 13 -36 27 -85 31 -108 3 -24 17 -69 30 -100 13
-32 33 -101 44 -154 12 -53 27 -109 35 -125 8 -15 18 -48 22 -73 4 -25 18 -70
32 -100 13 -30 31 -92 39 -138 8 -46 23 -100 33 -120 10 -20 26 -70 35 -111 9
-40 25 -90 35 -110 10 -20 21 -65 25 -100 4 -35 19 -89 33 -120 14 -31 32 -87
40 -126 16 -75 24 -95 49 -119 14 -14 118 -16 1020 -16 l1004 0 9 22 c18 48
70 225 80 276 6 29 17 63 25 75 8 12 22 60 32 107 9 47 23 97 30 112 8 15 22
63 30 105 9 43 20 83 25 89 15 18 49 125 49 153 1 14 8 44 16 66 9 22 26 78
38 125 13 47 30 99 39 117 9 17 23 67 31 110 13 69 26 115 93 313 8 25 21 74
29 110 7 36 29 115 49 175 63 197 96 311 104 363 4 28 15 61 23 74 9 13 24 60
33 103 10 44 21 87 26 97 5 9 20 58 33 110 14 51 34 119 46 151 11 31 27 89
35 128 8 38 21 82 29 97 7 15 19 52 25 83 7 31 21 80 32 109 11 29 27 87 36
129 8 42 22 88 29 103 8 15 24 67 35 115 11 48 27 99 34 113 7 14 18 50 24 80
7 30 27 105 46 165 58 190 94 319 100 360 4 22 17 65 30 95 12 30 28 84 34
119 7 35 26 104 42 154 17 53 29 110 29 142 0 30 5 65 11 79 13 28 38 41 51
28 5 -5 9 -1657 8 -3850 l0 -3842 1230 0 1230 0 0 6925 c0 5635 -2 6927 -13
6931 -20 7 -8 7 -1315 6 l-1232 -2 -11 -27 c-6 -16 -17 -54 -25 -86 -8 -32
-20 -68 -28 -80 -8 -12 -22 -56 -30 -98 -9 -42 -25 -98 -36 -123 -11 -26 -26
-73 -35 -104 -8 -31 -26 -84 -40 -117 -13 -33 -25 -76 -25 -95 0 -19 -9 -50
-20 -68 -11 -18 -29 -63 -39 -100 -10 -37 -30 -99 -44 -137 -13 -39 -28 -90
-32 -115 -4 -25 -18 -65 -30 -90 -12 -25 -26 -65 -30 -90 -4 -25 -15 -64 -26
-88 -10 -24 -26 -73 -35 -109 -9 -36 -27 -91 -41 -121 -13 -31 -29 -81 -35
-111 -5 -31 -16 -67 -23 -82 -8 -14 -22 -57 -31 -95 -9 -38 -25 -82 -35 -99
-9 -16 -24 -64 -33 -106 -8 -41 -26 -100 -40 -131 -14 -30 -28 -73 -32 -94 -3
-22 -15 -58 -25 -81 -11 -23 -26 -73 -34 -110 -9 -37 -27 -93 -40 -123 -13
-30 -27 -75 -31 -100 -4 -25 -19 -72 -34 -105 -15 -33 -30 -82 -33 -109 -4
-27 -16 -63 -27 -82 -12 -18 -28 -65 -36 -105 -8 -39 -21 -84 -29 -98 -7 -15
-21 -56 -30 -91 -9 -36 -28 -88 -41 -117 -13 -29 -28 -80 -33 -114 -6 -34 -16
-71 -24 -83 -7 -11 -21 -50 -31 -86 -9 -36 -28 -90 -41 -120 -13 -30 -29 -84
-35 -119 -6 -36 -20 -82 -31 -103 -10 -20 -25 -64 -33 -95 -7 -32 -21 -73 -30
-90 -9 -18 -23 -64 -31 -104 -8 -39 -28 -101 -44 -137 -16 -37 -32 -85 -36
-107 -4 -21 -13 -52 -21 -67 -8 -15 -23 -62 -33 -105 -11 -43 -31 -105 -45
-138 -14 -33 -26 -69 -26 -81 0 -11 -11 -49 -26 -83 -14 -35 -30 -89 -35 -120
-6 -31 -19 -70 -30 -87 -10 -17 -26 -64 -35 -105 -9 -41 -23 -87 -32 -103 -8
-17 -25 -70 -38 -118 -13 -49 -31 -102 -40 -119 -8 -17 -20 -57 -25 -90 -5
-32 -18 -73 -28 -91 -10 -18 -26 -64 -35 -102 -9 -38 -23 -81 -32 -97 -8 -16
-23 -65 -34 -110 -10 -44 -28 -99 -39 -120 -12 -22 -23 -58 -27 -82 -3 -23
-16 -67 -29 -97 -13 -30 -29 -84 -36 -120 -7 -36 -21 -80 -32 -98 -11 -19 -28
-66 -38 -105 -20 -82 -53 -186 -110 -343 -10 -28 -21 -82 -25 -120 -5 -49 -13
-76 -27 -91 -11 -13 -24 -23 -27 -23 -4 0 -15 20 -24 44 -9 25 -23 50 -31 56
-8 6 -17 33 -20 58 -12 89 -27 157 -42 187 -9 16 -21 56 -28 90 -7 33 -25 86
-39 118 -14 32 -28 74 -32 95 -7 44 -67 236 -96 307 -11 28 -23 68 -27 90 -7
41 -64 217 -106 330 -13 33 -28 86 -35 118 -6 33 -23 82 -36 110 -13 29 -24
59 -24 69 0 9 -12 49 -26 90 -14 40 -34 105 -44 144 -10 39 -24 84 -33 100 -8
16 -26 70 -40 119 -14 50 -30 104 -36 120 -27 75 -89 273 -95 305 -4 19 -15
55 -25 80 -10 25 -37 106 -60 180 -23 74 -53 169 -67 210 -14 41 -33 104 -43
140 -10 36 -23 75 -30 88 -6 12 -16 47 -22 77 -6 31 -23 88 -40 128 -16 40
-36 101 -45 137 -9 36 -20 70 -25 76 -5 6 -15 42 -24 80 -9 38 -27 94 -40 125
-14 31 -25 63 -25 70 0 8 -12 50 -26 94 -14 44 -37 118 -50 165 -14 46 -29 89
-34 95 -5 6 -16 41 -25 77 -8 37 -24 90 -34 120 -11 29 -30 87 -42 128 -12 41
-28 87 -35 101 -7 15 -21 62 -29 104 -9 43 -22 87 -30 99 -7 12 -23 57 -35
101 -11 43 -25 84 -30 90 -5 6 -16 40 -24 76 -9 35 -25 91 -37 124 -11 33 -29
89 -38 125 -10 36 -25 79 -34 96 -9 18 -19 51 -23 75 -4 24 -22 83 -40 131
-19 48 -34 94 -34 102 0 8 -12 48 -26 88 -15 40 -33 99 -40 131 -8 32 -23 75
-34 97 -11 22 -20 48 -20 59 0 11 -31 113 -69 228 -37 114 -75 235 -84 268
-13 53 -35 120 -58 180 -19 49 -69 218 -69 232 0 8 -11 41 -25 72 -13 31 -34
94 -45 141 -26 103 -33 117 -62 121 -13 2 -588 3 -1279 1z"/>
<path d="M11214 14670 l-289 -5 -3 -6928 -2 -6927 1702 2 1703 3 2 2345 c2
1290 3 2361 3 2382 l0 36 1058 5 1057 4 205 26 c279 35 400 54 495 77 44 10
132 31 195 46 179 41 518 145 605 184 22 10 67 29 100 43 105 44 271 124 315
152 24 15 95 57 159 94 103 59 269 174 415 288 108 85 546 539 580 602 5 9 56
88 114 176 58 88 135 216 170 285 35 69 68 130 72 135 11 14 110 243 145 335
15 41 43 110 62 152 18 42 38 103 44 135 6 32 21 90 35 130 13 39 24 81 24 92
0 11 9 44 20 73 23 62 45 166 55 258 4 36 12 76 17 90 22 56 39 152 54 299 8
86 19 172 25 191 35 125 36 1301 0 1418 -5 18 -15 76 -21 130 -17 153 -39 286
-54 328 -7 22 -19 77 -25 124 -12 82 -26 139 -70 280 -58 190 -145 432 -175
488 -19 36 -79 166 -101 222 -10 25 -24 52 -30 60 -7 8 -22 35 -35 60 -71 135
-185 324 -222 368 -15 17 -51 66 -80 108 -29 41 -66 93 -81 115 -76 105 -356
385 -527 527 -58 48 -116 97 -130 109 -14 13 -28 23 -33 23 -4 0 -69 42 -145
94 -157 107 -449 265 -602 326 -30 12 -73 30 -95 41 -22 10 -44 19 -50 19 -5
0 -23 7 -40 16 -16 9 -66 28 -110 44 -70 25 -138 45 -390 120 -102 30 -196 52
-280 65 -44 7 -105 20 -135 28 -30 9 -84 19 -120 22 -36 4 -84 11 -107 16 -78
17 -456 49 -693 60 -146 6 -895 9 -1970 7 l-1735 -3 0 -3185 0 -3185 1725 0
c1604 0 1736 1 1875 18 82 10 184 25 225 34 41 8 106 21 144 29 105 21 292 90
429 156 184 90 396 260 528 425 55 68 199 339 199 375 0 13 12 50 25 83 14 33
32 92 40 130 8 39 21 93 29 120 15 51 30 172 41 325 9 130 -21 580 -44 665
-11 39 -29 106 -40 150 -24 95 -62 204 -82 237 -9 13 -27 48 -42 78 -42 86
-57 110 -136 211 -81 103 -100 122 -210 216 -144 124 -353 225 -571 277 -36 9
-90 23 -120 31 -135 37 -401 45 -1536 45 -907 0 -1093 -2 -1103 -14 -8 -10
-10 -317 -9 -1147 l3 -1134 225 1 c265 1 446 14 463 35 10 11 11 186 7 764 -3
413 -3 764 0 780 l6 30 834 3 c459 1 862 -2 895 -7 217 -32 381 -100 519 -215
92 -77 117 -109 180 -232 96 -186 131 -423 108 -739 -12 -161 -62 -389 -98
-445 -13 -19 -30 -54 -38 -77 -14 -40 -23 -53 -96 -136 -79 -91 -90 -100 -191
-162 -124 -76 -326 -136 -589 -176 -159 -24 -581 -30 -1732 -27 -663 2 -1209
5 -1211 8 -3 3 -6 14 -7 25 -1 11 -2 1122 -1 2468 l1 2449 1673 -5 c1461 -4
1685 -7 1777 -21 58 -8 164 -22 235 -31 72 -8 173 -24 225 -35 52 -11 107 -20
121 -20 31 0 292 -65 319 -80 10 -5 28 -10 39 -10 21 0 199 -57 356 -115 244
-89 626 -309 807 -464 42 -36 111 -95 153 -131 42 -36 121 -112 175 -170 86
-92 128 -143 253 -308 56 -74 115 -169 167 -267 29 -55 61 -112 71 -126 10
-14 21 -38 25 -55 3 -16 15 -45 25 -64 10 -19 29 -62 43 -95 14 -33 34 -78 45
-100 12 -21 21 -53 21 -70 0 -16 12 -57 25 -90 14 -33 33 -91 41 -130 9 -38
22 -82 30 -96 7 -14 18 -62 23 -106 11 -87 35 -205 56 -268 7 -22 16 -85 19
-140 4 -55 17 -156 29 -225 21 -117 22 -153 21 -595 -1 -405 -3 -482 -18 -560
-10 -49 -24 -154 -31 -233 -8 -79 -19 -158 -24 -175 -17 -53 -51 -210 -51
-234 0 -12 -11 -57 -24 -100 -14 -43 -29 -104 -35 -135 -6 -31 -19 -75 -31
-97 -11 -22 -25 -64 -31 -92 -6 -28 -22 -77 -36 -108 -14 -31 -33 -78 -43
-106 -38 -105 -66 -172 -86 -205 -12 -19 -45 -82 -73 -140 -67 -136 -159 -281
-259 -405 -4 -5 -17 -26 -29 -45 -30 -49 -337 -352 -403 -399 -30 -21 -107
-76 -171 -122 -64 -46 -138 -97 -165 -114 -27 -16 -65 -40 -84 -52 -146 -93
-481 -245 -725 -328 -164 -56 -493 -121 -830 -165 -174 -23 -552 -29 -1747
-30 l-1208 0 -2 -2382 -3 -2383 -982 0 c-540 0 -984 3 -987 6 -3 3 -7 2960 -9
6570 l-2 6564 -61 5 c-34 3 -192 3 -350 0z"/>
<path d="M13670 13241 c-6 -13 -10 -137 -10 -335 0 -301 1 -316 19 -326 13 -7
441 -10 1313 -10 806 0 1316 -4 1353 -10 33 -5 107 -14 164 -20 110 -10 276
-54 466 -121 217 -78 360 -156 540 -295 88 -68 257 -238 299 -300 14 -21 40
-57 57 -79 40 -51 172 -271 198 -330 5 -11 25 -54 45 -96 20 -42 36 -81 36
-88 0 -7 15 -59 34 -115 19 -55 38 -119 42 -141 3 -22 13 -53 21 -69 22 -43
51 -263 68 -511 25 -366 21 -474 -36 -974 -6 -58 -18 -123 -26 -145 -8 -23
-23 -75 -33 -116 -32 -129 -150 -417 -179 -434 -5 -3 -12 -18 -16 -33 -15 -62
-111 -191 -263 -355 -158 -172 -278 -263 -512 -389 -73 -40 -203 -97 -285
-125 -130 -46 -409 -119 -505 -134 -138 -20 -434 -51 -580 -60 -80 -5 -915 -9
-1856 -9 -1316 -1 -1713 -4 -1722 -13 -16 -16 -18 -5559 -2 -5589 10 -18 24
-19 319 -19 272 0 310 2 315 16 3 9 6 1122 6 2475 l0 2459 1408 0 c1393 0
1615 4 1907 35 241 26 500 69 625 105 200 58 258 76 390 122 80 28 198 77 262
110 162 82 391 221 464 282 34 28 81 67 105 86 67 53 263 250 293 295 14 22
49 69 76 105 27 36 59 81 70 100 88 148 115 194 150 262 22 43 40 83 40 89 0
7 15 44 34 83 18 39 50 123 71 186 20 63 48 147 61 185 13 39 29 111 35 160 5
50 16 115 23 145 28 110 83 764 71 835 -2 17 -9 113 -15 215 -11 183 -45 524
-55 539 -2 5 -11 55 -19 112 -8 57 -22 121 -31 143 -9 21 -27 84 -40 140 -25
107 -55 196 -98 286 -14 30 -46 102 -72 160 -25 58 -54 116 -63 130 -9 14 -28
48 -42 75 -27 52 -61 112 -100 180 -13 22 -51 69 -85 105 -34 36 -88 98 -120
139 -33 40 -100 110 -149 155 -50 44 -102 92 -116 106 -48 45 -198 150 -216
150 -1 0 -29 17 -61 38 -67 42 -96 59 -173 98 -217 109 -300 146 -372 170 -46
14 -99 32 -118 40 -19 7 -55 18 -79 24 -24 6 -51 16 -60 21 -9 5 -56 16 -106
24 -49 8 -126 21 -171 29 -219 40 -426 46 -1731 46 -1228 0 -1252 0 -1263 -19z"/>
</g>
</svg>
